{"title":"The Ascent Of Woman S01E02 Separation HDTV x264-C4TV","uid":12403998,"size":307703441,"categoryP":"video","categoryS":"tv_shows","magnet":"?xt=urn:btih:ba59aff1e28dc2933078e45128c2cc37e112e098&amp;dn=The+Ascent+Of+Woman+S01E02+Separation+HDTV+x264-C4TV&amp;tr=udp%3A%2F%2Ftracker.openbittorrent.com%3A80&amp;tr=udp%3A%2F%2Fopen.demonii.com%3A1337&amp;tr=udp%3A%2F%2Ftracker.coppersurfer.tk%3A6969&amp;tr=udp%3A%2F%2Fexodus.desync.com%3A6969","seeders":4,"leechers":0,"uploader":"toots2boots","files":1,"time":1442063794,"description":"Travelling to Vietnam, China and Japan, Dr Amanda Foreman explores the role of women in Asia under the philosophy religions of Confucianism and Buddhism. Covering a period from the 1st century AD to the present day, she'll look at how Asian ideals of feminine virtue and the division of space between the female world of the home and male world of business and politics became a hallmark of Chinese identity. Part of yin and yang, they have cast a long shadow across women's lives, not just in China, but across Asia.\nOn the one hand, empowered by faiths such as Buddhism and Shinto, many women confronted the limits placed on their sex. They include Vietnam's Trung Sisters, who mounted the first armed rebellion against China, Empress Wu, the only woman to have ruled China in her own right, and the female writers of 12th century Japan such as Murasaki Shikibu, who created Japan's great literacy masterpieces, including the world's first novel - The Tale of Genji.\nOn the other hand, these limitations created ideals of beauty that advocated immobility and artifice, and were a world away from low-status work and labour. If they could lead to dynastic power and in some cases considerable sexual freedom, they also culminated in one of the most troubling and least understood beauty rituals in women's history: Chinese foot-binding, whose painful legacy would last right up to the 20th century.\n\nGeneral\nComplete name                            : M:PostsThe Ascent Of Woman S01E02 Separation HDTV x264-C4TVthe.ascent.of.woman.s01e02.separation.hdtv.x264-c4tv.mp4\nFormat                                   : MPEG-4\nFormat profile                           : Base Media\nCodec ID                                 : isom\nFile size                                : 293 MiB\nDuration                                 : 59mn 18s\nOverall bit rate mode                    : Variable\nOverall bit rate                         : 692 Kbps\n\nVideo\nID                                       : 1\nFormat                                   : AVC\nFormat/Info                              : Advanced Video Codec\nFormat profile                           : &lt;a class=&quot;__cf_email__&quot; href=&quot;/cdn-cgi/l/email-protection&quot; data-cfemail=&quot;6129080609212d524f50&quot;&gt;[email&amp;#160;protected]&lt;/a&gt;&lt;script data-cfhash='f9e31' type=&quot;text/javascript&quot;&gt;\n/* &lt;![CDATA[ */!function(){try{var t=&quot;currentScript&quot;in document?document.currentScript:function(){for(var t=document.getElementsByTagName(&quot;script&quot;),e=t.length;e--;)if(t[e].getAttribute(&quot;data-cfhash&quot;))return t[e]}();if(t&amp;&amp;t.previousSibling){var e,r,n,i,c=t.previousSibling,a=c.getAttribute(&quot;data-cfemail&quot;);if(a){for(e=&quot;&quot;,r=parseInt(a.substr(0,2),16),n=2;a.length-n;n+=2)i=parseInt(a.substr(n,2),16)^r,e+=String.fromCharCode(i);e=document.createTextNode(e),c.parentNode.replaceChild(e,c)}t.parentNode.removeChild(t);}}catch(u){}}()/* ]]&gt; */&lt;/script&gt;\nFormat settings, CABAC                   : Yes\nFormat settings, ReFrames                : 5 frames\nCodec ID                                 : avc1\nCodec ID/Info                            : Advanced Video Coding\nDuration                                 : 59mn 18s\nBit rate                                 : 564 Kbps\nMaximum bit rate                         : 6 511 Kbps\nWidth                                    : 720 pixels\nHeight                                   : 404 pixels\nDisplay aspect ratio                     : 16:9\nFrame rate mode                          : Constant\nFrame rate                               : 25.000 fps\nColor space                              : YUV\nChroma subsampling                       : 4:2:0\nBit depth                                : 8 bits\nScan type                                : Progressive\nBits/(Pixel*Frame)                       : 0.078\nStream size                              : 239 MiB (81%)\nTitle                                    : Video\nWriting library                          : x264 core 148 r2597 e86f3a1\nEncoding settings                        : cabac=1 / ref=5 / deblock=1:0:0 / analyse=0x3:0x113 / me=umh / subme=8 / psy=1 / psy_rd=1.00:0.00 / mixed_ref=1 / me_range=16 / chroma_me=1 / trellis=1 / 8x8dct=1 / cqm=0 / deadzone=21,11 / fast_pskip=1 / chroma_qp_offset=-2 / threads=12 / lookahead_threads=2 / sliced_threads=0 / nr=0 / decimate=1 / interlaced=0 / bluray_compat=0 / constrained_intra=0 / bframes=3 / b_pyramid=2 / b_adapt=2 / b_bias=0 / direct=3 / weightb=1 / open_gop=0 / weightp=2 / keyint=250 / keyint_min=25 / scenecut=40 / intra_refresh=0 / rc_lookahead=50 / rc=crf / mbtree=1 / crf=21.0 / qcomp=0.60 / qpmin=0 / qpmax=69 / qpstep=4 / ip_ratio=1.40 / aq=1:1.00\nMatrix coefficients                      : BT.709-5, BT.1361, IEC 61966-2-4 709, SMPTE RP177\n\nAudio\nID                                       : 2\nFormat                                   : AAC\nFormat/Info                              : Advanced Audio Codec\nFormat profile                           : LC\nCodec ID                                 : 40\nDuration                                 : 59mn 18s\nBit rate mode                            : Variable\nBit rate                                 : 124 Kbps\nMaximum bit rate                         : 130 Kbps\nChannel(s)                               : 2 channels\nChannel positions                        : Front: L R\nSampling rate                            : 48.0 KHz\nCompression mode                         : Lossy\nStream size                              : 52.6 MiB (18%)\nTitle                                    : English\nLanguage                                 : English","torrent":{"xt":"urn:btih:ba59aff1e28dc2933078e45128c2cc37e112e098","amp;dn":"The+Ascent+Of+Woman+S01E02+Separation+HDTV+x264-C4TV","amp;tr":["udp%3A%2F%2Ftracker.openbittorrent.com%3A80","udp%3A%2F%2Fopen.demonii.com%3A1337","udp%3A%2F%2Ftracker.coppersurfer.tk%3A6969","udp%3A%2F%2Fexodus.desync.com%3A6969"],"infoHash":"ba59aff1e28dc2933078e45128c2cc37e112e098","infoHashBuffer":{"type":"Buffer","data":[186,89,175,241,226,141,194,147,48,120,228,81,40,194,204,55,225,18,224,152]},"announce":[],"urlList":[]}}